<?xml version="1.0" encoding="utf-8"?><svg viewBox="0 0 20 11" xmlns="http://www.w3.org/2000/svg" xmlns:xlink="http://www.w3.org/1999/xlink"><style>:root>svg{display:none}:root>svg:target{display:block}</style><svg viewBox="0 0 20 11" id="vk" xmlns="http://www.w3.org/2000/svg"><path d="M19.822 9.811c-.054-.086-.386-.783-1.987-2.215-1.675-1.499-1.45-1.255.568-3.847 1.229-1.579 1.72-2.543 1.566-2.955-.146-.393-1.05-.289-1.05-.289l-3.005.017s-.223-.029-.389.066C15.364.682 15.26.9 15.26.9s-.476 1.222-1.111 2.26c-1.339 2.193-1.875 2.308-2.094 2.172-.509-.317-.381-1.275-.381-1.954 0-2.125.333-3.01-.652-3.24-.327-.075-.567-.126-1.404-.134-1.072-.011-1.98.003-2.495.245-.342.162-.606.522-.445.543.199.025.65.116.888.43.309.403.297 1.312.297 1.312s.178 2.5-.413 2.811c-.407.214-.963-.221-2.157-2.21C4.682 2.113 4.22.987 4.22.987s-.088-.21-.247-.322c-.193-.136-.463-.18-.463-.18L.652.505S.222.516.065.695c-.14.16-.011.49-.011.49s2.238 5.046 4.77 7.59c2.324 2.332 4.962 2.179 4.962 2.179h1.195s.361-.039.545-.23c.17-.176.164-.507.164-.507s-.024-1.546.721-1.773c.734-.225 1.677 1.494 2.675 2.155.755.5 1.33.39 1.33.39l2.67-.035s1.398-.084.736-1.143z"/></svg></svg>